<svg width="537" height="68" viewBox="0 0 537 68" fill="none" xmlns="http://www.w3.org/2000/svg">
<circle cx="34.7949" cy="34" r="34" fill="#FFB342"/>
<path d="M45.2949 24H24.2949C22.9142 24 21.7949 25.1193 21.7949 26.5V41.5C21.7949 42.8807 22.9142 44 24.2949 44H45.2949C46.6756 44 47.7949 42.8807 47.7949 41.5V26.5C47.7949 25.1193 46.6756 24 45.2949 24Z" stroke="#1C2752" stroke-width="2" stroke-linecap="round" stroke-linejoin="round"/>
<path d="M25.7949 28L34.7949 35L43.7949 28" stroke="#1C2752" stroke-width="2" stroke-linecap="round" stroke-linejoin="round"/>
<path d="M81.3749 29.5V15.4H83.6349L88.8149 27.06H88.1949L93.3749 15.4H95.6149V29.5H93.2749V19.04H93.9949L89.2549 29.5H87.7149L82.9749 19.04H83.7149V29.5H81.3749ZM102.457 29.7C101.577 29.7 100.804 29.4933 100.137 29.08C99.4706 28.6533 98.9506 28.0467 98.5773 27.26C98.2039 26.4733 98.0173 25.5333 98.0173 24.44C98.0173 23.3467 98.2039 22.4133 98.5773 21.64C98.9506 20.8533 99.4706 20.2533 100.137 19.84C100.804 19.4133 101.577 19.2 102.457 19.2C103.311 19.2 104.057 19.4133 104.697 19.84C105.351 20.2533 105.784 20.8133 105.997 21.52H105.777L105.997 19.4H108.397C108.357 19.8133 108.317 20.2333 108.277 20.66C108.251 21.0867 108.237 21.5067 108.237 21.92V29.5H105.757L105.737 27.42H105.977C105.764 28.1133 105.331 28.6667 104.677 29.08C104.024 29.4933 103.284 29.7 102.457 29.7ZM103.157 27.78C103.944 27.78 104.577 27.5067 105.057 26.96C105.537 26.4 105.777 25.56 105.777 24.44C105.777 23.32 105.537 22.4867 105.057 21.94C104.577 21.3933 103.944 21.12 103.157 21.12C102.371 21.12 101.737 21.3933 101.257 21.94C100.777 22.4867 100.537 23.32 100.537 24.44C100.537 25.56 100.771 26.4 101.237 26.96C101.717 27.5067 102.357 27.78 103.157 27.78ZM110.96 29.5V19.4H113.46V29.5H110.96ZM110.82 17.5V15.06H113.6V17.5H110.82ZM116.174 29.5V14.78H118.674V29.5H116.174ZM132.958 29.7C130.944 29.7 129.444 29.2 128.458 28.2C127.484 27.1867 126.998 25.6933 126.998 23.72V15.4H129.578V23.7C129.578 24.9533 129.844 25.9 130.378 26.54C130.924 27.18 131.784 27.5 132.958 27.5C134.078 27.5 134.918 27.18 135.478 26.54C136.051 25.9 136.338 24.9533 136.338 23.7V15.4H138.878V23.72C138.878 25.6933 138.378 27.1867 137.378 28.2C136.391 29.2 134.918 29.7 132.958 29.7ZM145.282 29.7C144.416 29.7 143.616 29.6 142.882 29.4C142.162 29.1867 141.556 28.8933 141.062 28.52L141.762 26.84C142.269 27.1867 142.829 27.4533 143.442 27.64C144.056 27.8267 144.676 27.92 145.302 27.92C145.969 27.92 146.462 27.8067 146.782 27.58C147.116 27.3533 147.282 27.0467 147.282 26.66C147.282 26.3533 147.176 26.1133 146.962 25.94C146.762 25.7533 146.436 25.6133 145.982 25.52L143.982 25.14C143.129 24.9533 142.476 24.6333 142.022 24.18C141.582 23.7267 141.362 23.1333 141.362 22.4C141.362 21.7733 141.529 21.22 141.862 20.74C142.209 20.26 142.696 19.8867 143.322 19.62C143.962 19.34 144.709 19.2 145.562 19.2C146.309 19.2 147.009 19.3 147.662 19.5C148.329 19.7 148.889 20 149.342 20.4L148.622 22.02C148.209 21.6867 147.736 21.4267 147.202 21.24C146.669 21.0533 146.149 20.96 145.642 20.96C144.949 20.96 144.442 21.0867 144.122 21.34C143.802 21.58 143.642 21.8933 143.642 22.28C143.642 22.5733 143.736 22.82 143.922 23.02C144.122 23.2067 144.429 23.3467 144.842 23.44L146.842 23.82C147.736 23.9933 148.409 24.3 148.862 24.74C149.329 25.1667 149.562 25.7533 149.562 26.5C149.562 27.1667 149.382 27.74 149.022 28.22C148.662 28.7 148.162 29.0667 147.522 29.32C146.882 29.5733 146.136 29.7 145.282 29.7Z" fill="#1C2752"/>
<path d="M82.9654 41.4091V54.5H81.3801V41.4091H82.9654ZM87.4478 48.5938V54.5H85.9393V44.6818H87.3967V46.2159H87.5245C87.7546 45.7173 88.104 45.3168 88.5728 45.0142C89.0415 44.7074 89.6467 44.554 90.3881 44.554C91.0529 44.554 91.6346 44.6903 92.1332 44.9631C92.6317 45.2315 93.0195 45.6406 93.2965 46.1903C93.5735 46.7358 93.712 47.4261 93.712 48.2614V54.5H92.2035V48.3636C92.2035 47.5923 92.0032 46.9915 91.6026 46.5611C91.2021 46.1264 90.6523 45.9091 89.9535 45.9091C89.4719 45.9091 89.0415 46.0135 88.6623 46.2223C88.2873 46.4311 87.9911 46.7358 87.7738 47.1364C87.5565 47.5369 87.4478 48.0227 87.4478 48.5938ZM100.841 44.6818V45.9602H95.5481V44.6818H100.841ZM97.1333 54.5V43.3267C97.1333 42.7642 97.2654 42.2955 97.5297 41.9205C97.7939 41.5455 98.1369 41.2642 98.5588 41.0767C98.9806 40.8892 99.426 40.7955 99.8947 40.7955C100.265 40.7955 100.568 40.8253 100.802 40.8849C101.037 40.9446 101.211 41 101.327 41.0511L100.892 42.3551C100.815 42.3295 100.709 42.2976 100.572 42.2592C100.44 42.2209 100.265 42.2017 100.048 42.2017C99.5495 42.2017 99.1895 42.3274 98.9679 42.5788C98.7505 42.8303 98.6419 43.1989 98.6419 43.6847V54.5H97.1333ZM106.539 54.7045C105.653 54.7045 104.875 54.4936 104.206 54.0717C103.541 53.6499 103.021 53.0597 102.646 52.3011C102.276 51.5426 102.09 50.6562 102.09 49.642C102.09 48.6193 102.276 47.7266 102.646 46.9638C103.021 46.201 103.541 45.6087 104.206 45.1868C104.875 44.7649 105.653 44.554 106.539 44.554C107.426 44.554 108.201 44.7649 108.866 45.1868C109.535 45.6087 110.055 46.201 110.426 46.9638C110.801 47.7266 110.988 48.6193 110.988 49.642C110.988 50.6562 110.801 51.5426 110.426 52.3011C110.055 53.0597 109.535 53.6499 108.866 54.0717C108.201 54.4936 107.426 54.7045 106.539 54.7045ZM106.539 53.3494C107.213 53.3494 107.767 53.1768 108.201 52.8317C108.636 52.4865 108.958 52.0327 109.166 51.4702C109.375 50.9077 109.48 50.2983 109.48 49.642C109.48 48.9858 109.375 48.3743 109.166 47.8075C108.958 47.2408 108.636 46.7827 108.201 46.4332C107.767 46.0838 107.213 45.9091 106.539 45.9091C105.866 45.9091 105.312 46.0838 104.877 46.4332C104.443 46.7827 104.121 47.2408 103.912 47.8075C103.703 48.3743 103.599 48.9858 103.599 49.642C103.599 50.2983 103.703 50.9077 103.912 51.4702C104.121 52.0327 104.443 52.4865 104.877 52.8317C105.312 53.1768 105.866 53.3494 106.539 53.3494ZM120.833 57.9517C119.529 57.9517 118.377 57.7727 117.375 57.4148C116.374 57.0611 115.532 56.5391 114.85 55.8487C114.169 55.1584 113.653 54.3125 113.304 53.3111C112.954 52.3097 112.779 51.1634 112.779 49.8722C112.779 48.6236 112.956 47.5071 113.31 46.5227C113.668 45.5384 114.186 44.7031 114.863 44.017C115.545 43.3267 116.372 42.8004 117.343 42.4382C118.319 42.076 119.423 41.8949 120.654 41.8949C121.852 41.8949 122.9 42.0909 123.799 42.483C124.703 42.8707 125.457 43.397 126.062 44.0618C126.672 44.7223 127.127 45.4659 127.43 46.2926C127.737 47.1193 127.89 47.9716 127.89 48.8494C127.89 49.4673 127.86 50.0937 127.801 50.7287C127.741 51.3636 127.615 51.9474 127.424 52.4801C127.232 53.0085 126.936 53.4347 126.535 53.7585C126.139 54.0824 125.602 54.2443 124.924 54.2443C124.626 54.2443 124.298 54.1974 123.94 54.1037C123.582 54.0099 123.265 53.8544 122.988 53.6371C122.711 53.4197 122.547 53.1278 122.495 52.7614H122.419C122.316 53.0085 122.159 53.2429 121.946 53.4645C121.737 53.6861 121.462 53.8629 121.121 53.995C120.784 54.1271 120.373 54.1847 119.887 54.1676C119.333 54.1463 118.846 54.0227 118.424 53.7969C118.002 53.5668 117.648 53.2557 117.363 52.8636C117.081 52.4673 116.868 52.0092 116.723 51.4893C116.583 50.9652 116.512 50.4006 116.512 49.7955C116.512 49.2202 116.598 48.6939 116.768 48.2166C116.939 47.7393 117.175 47.3217 117.478 46.9638C117.784 46.6058 118.142 46.3203 118.551 46.1072C118.965 45.8899 119.41 45.7557 119.887 45.7045C120.314 45.6619 120.701 45.6811 121.051 45.7621C121.4 45.8388 121.688 45.956 121.914 46.1136C122.14 46.267 122.282 46.4375 122.342 46.625H122.419V45.9091H123.774V51.6875C123.774 52.0455 123.874 52.3608 124.074 52.6335C124.275 52.9062 124.566 53.0426 124.95 53.0426C125.385 53.0426 125.717 52.8935 125.947 52.5952C126.181 52.2969 126.341 51.8366 126.426 51.2145C126.516 50.5923 126.561 49.7955 126.561 48.8239C126.561 48.2528 126.482 47.6903 126.324 47.1364C126.171 46.5781 125.936 46.0561 125.621 45.5703C125.31 45.0845 124.916 44.6562 124.439 44.2855C123.961 43.9148 123.401 43.625 122.757 43.4162C122.118 43.2031 121.392 43.0966 120.578 43.0966C119.576 43.0966 118.679 43.2521 117.887 43.5632C117.098 43.87 116.427 44.3196 115.873 44.9119C115.324 45.5 114.904 46.2159 114.614 47.0597C114.328 47.8991 114.186 48.8537 114.186 49.9233C114.186 51.0099 114.328 51.9751 114.614 52.8189C114.904 53.6626 115.33 54.3743 115.892 54.9538C116.459 55.5334 117.16 55.9723 117.995 56.2706C118.831 56.5732 119.794 56.7244 120.885 56.7244C121.353 56.7244 121.816 56.6797 122.272 56.5902C122.728 56.5007 123.13 56.4027 123.48 56.2962C123.829 56.1896 124.081 56.1108 124.234 56.0597L124.592 57.2358C124.328 57.3466 123.983 57.4574 123.556 57.5682C123.135 57.679 122.683 57.7706 122.201 57.843C121.724 57.9155 121.268 57.9517 120.833 57.9517ZM120.092 52.8636C120.663 52.8636 121.125 52.7486 121.479 52.5185C121.833 52.2884 122.091 51.9411 122.252 51.4766C122.414 51.0121 122.495 50.4261 122.495 49.7188C122.495 49.0028 122.406 48.4446 122.227 48.044C122.048 47.6435 121.784 47.3622 121.434 47.2003C121.085 47.0384 120.654 46.9574 120.143 46.9574C119.657 46.9574 119.242 47.0852 118.897 47.3409C118.556 47.5923 118.294 47.929 118.11 48.3509C117.931 48.7685 117.842 49.2244 117.842 49.7188C117.842 50.2642 117.914 50.7777 118.059 51.2592C118.204 51.7365 118.441 52.1243 118.769 52.4226C119.097 52.7166 119.538 52.8636 120.092 52.8636ZM130.353 54.5V41.4091H138.253V42.8153H131.938V47.2386H137.844V48.6449H131.938V53.0938H138.356V54.5H130.353ZM142.031 44.6818L144.383 48.696L146.736 44.6818H148.474L145.304 49.5909L148.474 54.5H146.736L144.383 50.6903L142.031 54.5H140.292L143.412 49.5909L140.292 44.6818H142.031ZM153.516 54.7301C152.894 54.7301 152.329 54.6129 151.822 54.3786C151.315 54.1399 150.912 53.7969 150.614 53.3494C150.316 52.8977 150.167 52.3523 150.167 51.7131C150.167 51.1506 150.277 50.6946 150.499 50.3452C150.721 49.9915 151.017 49.7145 151.387 49.5142C151.758 49.3139 152.167 49.1648 152.615 49.0668C153.066 48.9645 153.52 48.8835 153.976 48.8239C154.573 48.7472 155.056 48.6896 155.427 48.6513C155.802 48.6087 156.075 48.5384 156.245 48.4403C156.42 48.3423 156.507 48.1719 156.507 47.929V47.8778C156.507 47.2472 156.335 46.7571 155.99 46.4077C155.649 46.0582 155.131 45.8835 154.436 45.8835C153.716 45.8835 153.152 46.0412 152.743 46.3565C152.333 46.6719 152.046 47.0085 151.88 47.3665L150.448 46.8551C150.703 46.2585 151.044 45.794 151.471 45.4616C151.901 45.125 152.37 44.8906 152.877 44.7585C153.388 44.6222 153.891 44.554 154.385 44.554C154.701 44.554 155.063 44.5923 155.472 44.669C155.885 44.7415 156.284 44.8928 156.667 45.1229C157.055 45.353 157.377 45.7003 157.632 46.1648C157.888 46.6293 158.016 47.2514 158.016 48.0312V54.5H156.507V53.1705H156.431C156.328 53.3835 156.158 53.6115 155.919 53.8544C155.681 54.0973 155.363 54.304 154.967 54.4744C154.571 54.6449 154.087 54.7301 153.516 54.7301ZM153.746 53.375C154.343 53.375 154.846 53.2578 155.255 53.0234C155.668 52.7891 155.979 52.4865 156.188 52.1158C156.401 51.745 156.507 51.3551 156.507 50.946V49.5653C156.444 49.642 156.303 49.7124 156.086 49.7763C155.873 49.8359 155.625 49.8892 155.344 49.9361C155.067 49.9787 154.797 50.017 154.532 50.0511C154.272 50.081 154.061 50.1065 153.9 50.1278C153.507 50.179 153.141 50.2621 152.8 50.3771C152.463 50.4879 152.191 50.6562 151.982 50.8821C151.777 51.1037 151.675 51.4062 151.675 51.7898C151.675 52.3139 151.869 52.7102 152.257 52.9787C152.649 53.2429 153.145 53.375 153.746 53.375ZM160.769 54.5V44.6818H162.227V46.2159H162.355C162.559 45.6918 162.889 45.2848 163.345 44.995C163.801 44.701 164.349 44.554 164.988 44.554C165.636 44.554 166.175 44.701 166.605 44.995C167.04 45.2848 167.379 45.6918 167.622 46.2159H167.724C167.975 45.7088 168.352 45.3061 168.855 45.0078C169.358 44.7053 169.961 44.554 170.664 44.554C171.542 44.554 172.26 44.8288 172.818 45.3786C173.377 45.924 173.656 46.7741 173.656 47.929V54.5H172.147V47.929C172.147 47.2045 171.949 46.6868 171.553 46.3757C171.156 46.0646 170.69 45.9091 170.153 45.9091C169.463 45.9091 168.928 46.1179 168.548 46.5355C168.169 46.9489 167.98 47.473 167.98 48.108V54.5H166.445V47.7756C166.445 47.2173 166.264 46.7678 165.902 46.4268C165.54 46.0817 165.073 45.9091 164.502 45.9091C164.11 45.9091 163.744 46.0135 163.403 46.2223C163.066 46.4311 162.794 46.7209 162.585 47.0916C162.38 47.4581 162.278 47.8821 162.278 48.3636V54.5H160.769ZM176.414 58.1818V44.6818H177.871V46.2415H178.05C178.161 46.071 178.314 45.8537 178.51 45.5895C178.711 45.321 178.996 45.0824 179.367 44.8736C179.742 44.6605 180.249 44.554 180.888 44.554C181.715 44.554 182.444 44.7607 183.074 45.174C183.705 45.5874 184.197 46.1733 184.551 46.9318C184.905 47.6903 185.081 48.5852 185.081 49.6165C185.081 50.6562 184.905 51.5575 184.551 52.3203C184.197 53.0788 183.707 53.6669 183.081 54.0845C182.454 54.4979 181.732 54.7045 180.914 54.7045C180.283 54.7045 179.778 54.6001 179.399 54.3913C179.02 54.1783 178.728 53.9375 178.523 53.669C178.319 53.3963 178.161 53.1705 178.05 52.9915H177.922V58.1818H176.414ZM177.897 49.5909C177.897 50.3324 178.006 50.9865 178.223 51.5533C178.44 52.1158 178.758 52.5568 179.175 52.8764C179.593 53.1918 180.104 53.3494 180.709 53.3494C181.34 53.3494 181.866 53.1832 182.288 52.8509C182.714 52.5142 183.034 52.0625 183.247 51.4957C183.464 50.9247 183.573 50.2898 183.573 49.5909C183.573 48.9006 183.466 48.2784 183.253 47.7244C183.045 47.1662 182.727 46.7251 182.301 46.4013C181.879 46.0732 181.349 45.9091 180.709 45.9091C180.096 45.9091 179.58 46.0646 179.162 46.3757C178.745 46.6825 178.43 47.1129 178.216 47.6669C178.003 48.2166 177.897 48.858 177.897 49.5909ZM188.891 41.4091V54.5H187.383V41.4091H188.891ZM195.771 54.7045C194.825 54.7045 194.009 54.4957 193.322 54.0781C192.641 53.6562 192.114 53.0682 191.744 52.3139C191.377 51.5554 191.194 50.6733 191.194 49.6676C191.194 48.6619 191.377 47.7756 191.744 47.0085C192.114 46.2372 192.63 45.6364 193.29 45.206C193.955 44.7713 194.731 44.554 195.617 44.554C196.129 44.554 196.634 44.6392 197.132 44.8097C197.631 44.9801 198.085 45.2571 198.494 45.6406C198.903 46.0199 199.229 46.5227 199.472 47.1491C199.714 47.7756 199.836 48.5469 199.836 49.4631V50.1023H192.268V48.7983H198.302C198.302 48.2443 198.191 47.75 197.969 47.3153C197.752 46.8807 197.441 46.5376 197.036 46.2862C196.636 46.0348 196.163 45.9091 195.617 45.9091C195.016 45.9091 194.496 46.0582 194.058 46.3565C193.623 46.6506 193.288 47.0341 193.054 47.5071C192.82 47.9801 192.702 48.4872 192.702 49.0284V49.8977C192.702 50.6392 192.83 51.2678 193.086 51.7834C193.346 52.2947 193.706 52.6847 194.166 52.9531C194.626 53.2173 195.161 53.3494 195.771 53.3494C196.167 53.3494 196.525 53.294 196.844 53.1832C197.168 53.0682 197.447 52.8977 197.682 52.6719C197.916 52.4418 198.097 52.1562 198.225 51.8153L199.683 52.2244C199.529 52.7188 199.271 53.1534 198.909 53.5284C198.547 53.8991 198.099 54.1889 197.567 54.3977C197.034 54.6023 196.435 54.7045 195.771 54.7045ZM203.23 54.6023C202.915 54.6023 202.644 54.4893 202.418 54.2635C202.192 54.0376 202.08 53.767 202.08 53.4517C202.08 53.1364 202.192 52.8658 202.418 52.6399C202.644 52.4141 202.915 52.3011 203.23 52.3011C203.545 52.3011 203.816 52.4141 204.042 52.6399C204.268 52.8658 204.381 53.1364 204.381 53.4517C204.381 53.6605 204.327 53.8523 204.221 54.027C204.119 54.2017 203.98 54.3423 203.805 54.4489C203.635 54.5511 203.443 54.6023 203.23 54.6023ZM211.076 54.7045C210.156 54.7045 209.363 54.4872 208.699 54.0526C208.034 53.6179 207.522 53.0192 207.164 52.2564C206.806 51.4936 206.627 50.6222 206.627 49.642C206.627 48.6449 206.811 47.7649 207.177 47.0021C207.548 46.2351 208.064 45.6364 208.724 45.206C209.389 44.7713 210.164 44.554 211.051 44.554C211.741 44.554 212.363 44.6818 212.917 44.9375C213.471 45.1932 213.925 45.5511 214.279 46.0114C214.632 46.4716 214.852 47.0085 214.937 47.6222H213.429C213.314 47.1747 213.058 46.7784 212.662 46.4332C212.27 46.0838 211.741 45.9091 211.076 45.9091C210.488 45.9091 209.973 46.0625 209.529 46.3693C209.091 46.6719 208.748 47.1001 208.5 47.6541C208.257 48.2038 208.136 48.8494 208.136 49.5909C208.136 50.3494 208.255 51.0099 208.494 51.5724C208.737 52.1349 209.078 52.5717 209.517 52.8828C209.96 53.1939 210.48 53.3494 211.076 53.3494C211.468 53.3494 211.824 53.2812 212.144 53.1449C212.463 53.0085 212.734 52.8125 212.956 52.5568C213.177 52.3011 213.335 51.9943 213.429 51.6364H214.937C214.852 52.2159 214.641 52.7379 214.304 53.2024C213.972 53.6626 213.531 54.0291 212.981 54.3018C212.436 54.5703 211.801 54.7045 211.076 54.7045ZM221.131 54.7045C220.245 54.7045 219.467 54.4936 218.798 54.0717C218.133 53.6499 217.613 53.0597 217.238 52.3011C216.868 51.5426 216.682 50.6562 216.682 49.642C216.682 48.6193 216.868 47.7266 217.238 46.9638C217.613 46.201 218.133 45.6087 218.798 45.1868C219.467 44.7649 220.245 44.554 221.131 44.554C222.017 44.554 222.793 44.7649 223.458 45.1868C224.127 45.6087 224.647 46.201 225.017 46.9638C225.392 47.7266 225.58 48.6193 225.58 49.642C225.58 50.6562 225.392 51.5426 225.017 52.3011C224.647 53.0597 224.127 53.6499 223.458 54.0717C222.793 54.4936 222.017 54.7045 221.131 54.7045ZM221.131 53.3494C221.804 53.3494 222.358 53.1768 222.793 52.8317C223.228 52.4865 223.549 52.0327 223.758 51.4702C223.967 50.9077 224.071 50.2983 224.071 49.642C224.071 48.9858 223.967 48.3743 223.758 47.8075C223.549 47.2408 223.228 46.7827 222.793 46.4332C222.358 46.0838 221.804 45.9091 221.131 45.9091C220.458 45.9091 219.904 46.0838 219.469 46.4332C219.034 46.7827 218.713 47.2408 218.504 47.8075C218.295 48.3743 218.191 48.9858 218.191 49.642C218.191 50.2983 218.295 50.9077 218.504 51.4702C218.713 52.0327 219.034 52.4865 219.469 52.8317C219.904 53.1768 220.458 53.3494 221.131 53.3494ZM227.883 54.5V44.6818H229.34V46.2159H229.468C229.672 45.6918 230.003 45.2848 230.459 44.995C230.915 44.701 231.462 44.554 232.101 44.554C232.749 44.554 233.288 44.701 233.719 44.995C234.153 45.2848 234.492 45.6918 234.735 46.2159H234.837C235.089 45.7088 235.466 45.3061 235.969 45.0078C236.471 44.7053 237.074 44.554 237.778 44.554C238.655 44.554 239.373 44.8288 239.932 45.3786C240.49 45.924 240.769 46.7741 240.769 47.929V54.5H239.26V47.929C239.26 47.2045 239.062 46.6868 238.666 46.3757C238.27 46.0646 237.803 45.9091 237.266 45.9091C236.576 45.9091 236.041 46.1179 235.662 46.5355C235.282 46.9489 235.093 47.473 235.093 48.108V54.5H233.559V47.7756C233.559 47.2173 233.378 46.7678 233.015 46.4268C232.653 46.0817 232.187 45.9091 231.616 45.9091C231.224 45.9091 230.857 46.0135 230.516 46.2223C230.18 46.4311 229.907 46.7209 229.698 47.0916C229.493 47.4581 229.391 47.8821 229.391 48.3636V54.5H227.883Z" fill="#7E7E7E"/>
<circle cx="344.795" cy="34" r="34" fill="#FFB342"/>
<path d="M358.046 40.8062C357.13 39.8832 354.911 38.5361 353.834 37.9933C352.432 37.2871 352.317 37.2294 351.215 38.0481C350.48 38.5944 349.991 39.0824 349.131 38.899C348.271 38.7155 346.401 37.6811 344.765 36.0497C343.128 34.4182 342.034 32.4948 341.849 31.6376C341.665 30.7803 342.162 30.2974 342.703 29.5607C343.465 28.5223 343.408 28.3492 342.756 26.9474C342.248 25.857 340.861 23.6591 339.935 22.7476C338.943 21.7686 338.943 21.9416 338.305 22.207C337.785 22.4258 337.286 22.6917 336.815 23.0014C335.891 23.6146 335.379 24.124 335.021 24.8896C334.663 25.6551 334.502 27.4499 336.352 30.8109C338.202 34.1719 339.5 35.8905 342.187 38.5696C344.874 41.2487 346.94 42.6892 349.96 44.383C353.696 46.4754 355.129 46.0675 355.897 45.7098C356.665 45.3522 357.177 44.8445 357.791 43.9215C358.102 43.4508 358.368 42.9526 358.588 42.4331C358.854 41.7967 359.027 41.7967 358.046 40.8062Z" stroke="#1C2752" stroke-width="2" stroke-miterlimit="10"/>
<path d="M396.915 29.7C395.448 29.7 394.188 29.4067 393.135 28.82C392.095 28.22 391.295 27.38 390.735 26.3C390.175 25.2067 389.895 23.92 389.895 22.44C389.895 20.96 390.175 19.68 390.735 18.6C391.295 17.52 392.095 16.6867 393.135 16.1C394.188 15.5 395.448 15.2 396.915 15.2C397.902 15.2 398.788 15.34 399.575 15.62C400.375 15.9 401.062 16.3133 401.635 16.86L400.795 18.9C400.168 18.3933 399.562 18.0333 398.975 17.82C398.402 17.5933 397.742 17.48 396.995 17.48C395.568 17.48 394.475 17.9133 393.715 18.78C392.968 19.6333 392.595 20.8533 392.595 22.44C392.595 24.0267 392.968 25.2533 393.715 26.12C394.475 26.9867 395.568 27.42 396.995 27.42C397.742 27.42 398.402 27.3133 398.975 27.1C399.562 26.8733 400.168 26.5 400.795 25.98L401.635 28.02C401.062 28.5533 400.375 28.9667 399.575 29.26C398.788 29.5533 397.902 29.7 396.915 29.7ZM407.395 29.7C406.515 29.7 405.741 29.4933 405.075 29.08C404.408 28.6533 403.888 28.0467 403.515 27.26C403.141 26.4733 402.955 25.5333 402.955 24.44C402.955 23.3467 403.141 22.4133 403.515 21.64C403.888 20.8533 404.408 20.2533 405.075 19.84C405.741 19.4133 406.515 19.2 407.395 19.2C408.248 19.2 408.995 19.4133 409.635 19.84C410.288 20.2533 410.721 20.8133 410.935 21.52H410.715L410.935 19.4H413.335C413.295 19.8133 413.255 20.2333 413.215 20.66C413.188 21.0867 413.175 21.5067 413.175 21.92V29.5H410.695L410.675 27.42H410.915C410.701 28.1133 410.268 28.6667 409.615 29.08C408.961 29.4933 408.221 29.7 407.395 29.7ZM408.095 27.78C408.881 27.78 409.515 27.5067 409.995 26.96C410.475 26.4 410.715 25.56 410.715 24.44C410.715 23.32 410.475 22.4867 409.995 21.94C409.515 21.3933 408.881 21.12 408.095 21.12C407.308 21.12 406.675 21.3933 406.195 21.94C405.715 22.4867 405.475 23.32 405.475 24.44C405.475 25.56 405.708 26.4 406.175 26.96C406.655 27.5067 407.295 27.78 408.095 27.78ZM415.897 29.5V14.78H418.397V29.5H415.897ZM421.112 29.5V14.78H423.612V29.5H421.112ZM437.895 29.7C435.882 29.7 434.382 29.2 433.395 28.2C432.422 27.1867 431.935 25.6933 431.935 23.72V15.4H434.515V23.7C434.515 24.9533 434.782 25.9 435.315 26.54C435.862 27.18 436.722 27.5 437.895 27.5C439.015 27.5 439.855 27.18 440.415 26.54C440.988 25.9 441.275 24.9533 441.275 23.7V15.4H443.815V23.72C443.815 25.6933 443.315 27.1867 442.315 28.2C441.328 29.2 439.855 29.7 437.895 29.7ZM450.22 29.7C449.353 29.7 448.553 29.6 447.82 29.4C447.1 29.1867 446.493 28.8933 446 28.52L446.7 26.84C447.206 27.1867 447.766 27.4533 448.38 27.64C448.993 27.8267 449.613 27.92 450.24 27.92C450.906 27.92 451.4 27.8067 451.72 27.58C452.053 27.3533 452.22 27.0467 452.22 26.66C452.22 26.3533 452.113 26.1133 451.9 25.94C451.7 25.7533 451.373 25.6133 450.92 25.52L448.92 25.14C448.066 24.9533 447.413 24.6333 446.96 24.18C446.52 23.7267 446.3 23.1333 446.3 22.4C446.3 21.7733 446.466 21.22 446.8 20.74C447.146 20.26 447.633 19.8867 448.26 19.62C448.9 19.34 449.646 19.2 450.5 19.2C451.246 19.2 451.946 19.3 452.6 19.5C453.266 19.7 453.826 20 454.28 20.4L453.56 22.02C453.146 21.6867 452.673 21.4267 452.14 21.24C451.606 21.0533 451.086 20.96 450.58 20.96C449.886 20.96 449.38 21.0867 449.06 21.34C448.74 21.58 448.58 21.8933 448.58 22.28C448.58 22.5733 448.673 22.82 448.86 23.02C449.06 23.2067 449.366 23.3467 449.78 23.44L451.78 23.82C452.673 23.9933 453.346 24.3 453.8 24.74C454.266 25.1667 454.5 25.7533 454.5 26.5C454.5 27.1667 454.32 27.74 453.96 28.22C453.6 28.7 453.1 29.0667 452.46 29.32C451.82 29.5733 451.073 29.7 450.22 29.7Z" fill="#1C2752"/>
<path d="M394.011 52.1989V43.7614H395.443V52.1989H394.011ZM390.508 48.696V47.2642H398.945V48.696H390.508ZM406.285 54.679C405.322 54.679 404.502 54.4169 403.824 53.8928C403.147 53.3643 402.629 52.5994 402.271 51.598C401.913 50.5923 401.734 49.3778 401.734 47.9545C401.734 46.5398 401.913 45.3317 402.271 44.3303C402.633 43.3246 403.153 42.5575 403.831 42.0291C404.512 41.4964 405.331 41.2301 406.285 41.2301C407.24 41.2301 408.056 41.4964 408.733 42.0291C409.415 42.5575 409.935 43.3246 410.293 44.3303C410.655 45.3317 410.836 46.5398 410.836 47.9545C410.836 49.3778 410.657 50.5923 410.299 51.598C409.941 52.5994 409.424 53.3643 408.746 53.8928C408.069 54.4169 407.248 54.679 406.285 54.679ZM406.285 53.2727C407.24 53.2727 407.981 52.8125 408.51 51.892C409.038 50.9716 409.302 49.6591 409.302 47.9545C409.302 46.821 409.181 45.8558 408.938 45.0589C408.699 44.2621 408.354 43.6548 407.902 43.2372C407.455 42.8196 406.916 42.6108 406.285 42.6108C405.339 42.6108 404.6 43.0774 404.067 44.0107C403.534 44.9396 403.268 46.2543 403.268 47.9545C403.268 49.0881 403.387 50.0511 403.626 50.8438C403.865 51.6364 404.208 52.2393 404.655 52.6527C405.107 53.0661 405.65 53.2727 406.285 53.2727ZM417.868 41.4091V54.5H416.282V43.071H416.206L413.01 45.1932V43.5824L416.282 41.4091H417.868ZM430.786 54.679C430.036 54.679 429.36 54.5298 428.76 54.2315C428.159 53.9332 427.677 53.5241 427.315 53.0043C426.953 52.4844 426.755 51.892 426.721 51.2273H428.255C428.314 51.8196 428.583 52.3097 429.06 52.6974C429.542 53.081 430.117 53.2727 430.786 53.2727C431.323 53.2727 431.8 53.147 432.218 52.8956C432.64 52.6442 432.97 52.299 433.208 51.8601C433.451 51.4169 433.573 50.9162 433.573 50.358C433.573 49.7869 433.447 49.2777 433.196 48.8303C432.949 48.3786 432.608 48.0227 432.173 47.7628C431.738 47.5028 431.242 47.3707 430.684 47.3665C430.283 47.3622 429.872 47.424 429.45 47.5518C429.028 47.6754 428.681 47.8352 428.408 48.0312L426.925 47.8523L427.718 41.4091H434.519V42.8153H429.047L428.587 46.6761H428.664C428.932 46.4631 429.269 46.2862 429.674 46.1456C430.078 46.005 430.5 45.9347 430.939 45.9347C431.74 45.9347 432.454 46.1264 433.081 46.5099C433.711 46.8892 434.206 47.4091 434.564 48.0696C434.926 48.7301 435.107 49.4844 435.107 50.3324C435.107 51.1676 434.919 51.9134 434.544 52.5696C434.174 53.2216 433.662 53.7372 433.01 54.1165C432.358 54.4915 431.617 54.679 430.786 54.679ZM441.993 54.679C441.456 54.6705 440.919 54.5682 440.382 54.3722C439.845 54.1761 439.355 53.8459 438.912 53.3814C438.469 52.9126 438.113 52.2798 437.844 51.483C437.576 50.6818 437.442 49.6761 437.442 48.4659C437.442 47.3068 437.55 46.2798 437.768 45.3849C437.985 44.4858 438.3 43.7294 438.714 43.1158C439.127 42.4979 439.626 42.0291 440.209 41.7095C440.797 41.3899 441.46 41.2301 442.197 41.2301C442.93 41.2301 443.582 41.3771 444.153 41.6712C444.729 41.9609 445.197 42.3658 445.559 42.8857C445.922 43.4055 446.156 44.0043 446.263 44.6818H444.703C444.558 44.0937 444.277 43.6058 443.859 43.218C443.442 42.8303 442.888 42.6364 442.197 42.6364C441.183 42.6364 440.384 43.0774 439.8 43.9595C439.221 44.8416 438.929 46.0795 438.925 47.6733H439.027C439.265 47.3111 439.549 47.0021 439.877 46.7464C440.209 46.4865 440.576 46.2862 440.976 46.1456C441.377 46.005 441.801 45.9347 442.248 45.9347C442.998 45.9347 443.684 46.1222 444.307 46.4972C444.929 46.8679 445.427 47.3814 445.802 48.0376C446.177 48.6896 446.365 49.4375 446.365 50.2812C446.365 51.0909 446.184 51.8324 445.822 52.5057C445.459 53.1747 444.95 53.7074 444.294 54.1037C443.642 54.4957 442.875 54.6875 441.993 54.679ZM441.993 53.2727C442.53 53.2727 443.011 53.1385 443.437 52.87C443.868 52.6016 444.206 52.2415 444.454 51.7898C444.705 51.3381 444.831 50.8352 444.831 50.2812C444.831 49.7401 444.709 49.2479 444.466 48.8047C444.228 48.3572 443.898 48.0014 443.476 47.7372C443.058 47.473 442.581 47.3409 442.044 47.3409C441.639 47.3409 441.262 47.4219 440.912 47.5838C440.563 47.7415 440.256 47.9588 439.992 48.2358C439.732 48.5128 439.528 48.8303 439.378 49.1882C439.229 49.5419 439.155 49.9148 439.155 50.3068C439.155 50.8267 439.276 51.3125 439.519 51.7642C439.766 52.2159 440.103 52.5803 440.529 52.8572C440.959 53.1342 441.447 53.2727 441.993 53.2727ZM453.046 41.2301C453.583 41.2344 454.12 41.3366 454.657 41.5369C455.194 41.7372 455.684 42.0696 456.127 42.5341C456.57 42.9943 456.926 43.6229 457.195 44.4197C457.463 45.2166 457.597 46.2159 457.597 47.4176C457.597 48.581 457.487 49.6143 457.265 50.5178C457.048 51.4169 456.732 52.1754 456.319 52.7933C455.91 53.4112 455.411 53.88 454.823 54.1996C454.239 54.5192 453.579 54.679 452.842 54.679C452.109 54.679 451.455 54.5341 450.879 54.2443C450.308 53.9503 449.839 53.5433 449.473 53.0234C449.111 52.4993 448.879 51.892 448.776 51.2017H450.336C450.477 51.8026 450.756 52.299 451.173 52.6911C451.595 53.0788 452.151 53.2727 452.842 53.2727C453.852 53.2727 454.648 52.8317 455.232 51.9496C455.82 51.0675 456.114 49.821 456.114 48.2102H456.012C455.773 48.5682 455.49 48.8771 455.162 49.1371C454.834 49.397 454.469 49.5973 454.069 49.7379C453.668 49.8786 453.242 49.9489 452.79 49.9489C452.04 49.9489 451.352 49.7635 450.726 49.3928C450.104 49.0178 449.605 48.5043 449.23 47.8523C448.859 47.196 448.674 46.446 448.674 45.6023C448.674 44.8011 448.853 44.0682 449.211 43.4034C449.573 42.7344 450.08 42.2017 450.732 41.8054C451.388 41.4091 452.16 41.2173 453.046 41.2301ZM453.046 42.6364C452.509 42.6364 452.026 42.7706 451.595 43.0391C451.169 43.3033 450.83 43.6612 450.579 44.1129C450.332 44.5604 450.208 45.0568 450.208 45.6023C450.208 46.1477 450.327 46.6442 450.566 47.0916C450.809 47.5348 451.139 47.8885 451.557 48.1527C451.979 48.4126 452.458 48.5426 452.995 48.5426C453.4 48.5426 453.777 48.4638 454.126 48.3061C454.476 48.1442 454.781 47.9247 455.04 47.6477C455.305 47.3665 455.511 47.049 455.661 46.6953C455.81 46.3374 455.884 45.9645 455.884 45.5767C455.884 45.0653 455.761 44.5859 455.513 44.1385C455.271 43.6911 454.934 43.3288 454.504 43.0518C454.077 42.7749 453.592 42.6364 453.046 42.6364ZM469.367 54.679C468.489 54.679 467.713 54.5234 467.04 54.2124C466.371 53.897 465.849 53.4645 465.474 52.9148C465.099 52.3608 464.914 51.7301 464.918 51.0227C464.914 50.4687 465.022 49.9574 465.244 49.4886C465.465 49.0156 465.768 48.6214 466.151 48.3061C466.539 47.9865 466.972 47.7841 467.449 47.6989V47.6222C466.823 47.4602 466.324 47.1087 465.953 46.5675C465.583 46.022 465.399 45.402 465.404 44.7074C465.399 44.0426 465.568 43.4482 465.909 42.924C466.249 42.3999 466.718 41.9865 467.315 41.6839C467.916 41.3814 468.6 41.2301 469.367 41.2301C470.125 41.2301 470.803 41.3814 471.399 41.6839C471.996 41.9865 472.465 42.3999 472.806 42.924C473.151 43.4482 473.325 44.0426 473.33 44.7074C473.325 45.402 473.136 46.022 472.761 46.5675C472.39 47.1087 471.898 47.4602 471.284 47.6222V47.6989C471.757 47.7841 472.183 47.9865 472.563 48.3061C472.942 48.6214 473.244 49.0156 473.47 49.4886C473.696 49.9574 473.811 50.4687 473.816 51.0227C473.811 51.7301 473.619 52.3608 473.24 52.9148C472.865 53.4645 472.343 53.897 471.674 54.2124C471.009 54.5234 470.24 54.679 469.367 54.679ZM469.367 53.2727C469.959 53.2727 470.47 53.1768 470.901 52.9851C471.331 52.7933 471.664 52.5227 471.898 52.1733C472.132 51.8239 472.252 51.4148 472.256 50.946C472.252 50.4517 472.124 50.0149 471.872 49.6357C471.621 49.2564 471.278 48.9581 470.843 48.7408C470.413 48.5234 469.921 48.4148 469.367 48.4148C468.808 48.4148 468.31 48.5234 467.871 48.7408C467.436 48.9581 467.093 49.2564 466.842 49.6357C466.595 50.0149 466.473 50.4517 466.477 50.946C466.473 51.4148 466.586 51.8239 466.816 52.1733C467.051 52.5227 467.385 52.7933 467.82 52.9851C468.254 53.1768 468.77 53.2727 469.367 53.2727ZM469.367 47.0597C469.835 47.0597 470.251 46.9659 470.613 46.7784C470.98 46.5909 471.267 46.3288 471.476 45.9922C471.685 45.6555 471.791 45.2614 471.796 44.8097C471.791 44.3665 471.687 43.9808 471.482 43.6527C471.278 43.3203 470.994 43.0646 470.632 42.8857C470.27 42.7024 469.848 42.6108 469.367 42.6108C468.877 42.6108 468.448 42.7024 468.082 42.8857C467.715 43.0646 467.432 43.3203 467.232 43.6527C467.031 43.9808 466.933 44.3665 466.938 44.8097C466.933 45.2614 467.034 45.6555 467.238 45.9922C467.447 46.3288 467.735 46.5909 468.101 46.7784C468.468 46.9659 468.889 47.0597 469.367 47.0597ZM480.433 41.2301C480.97 41.2344 481.507 41.3366 482.044 41.5369C482.581 41.7372 483.071 42.0696 483.514 42.5341C483.957 42.9943 484.313 43.6229 484.581 44.4197C484.85 45.2166 484.984 46.2159 484.984 47.4176C484.984 48.581 484.873 49.6143 484.652 50.5178C484.434 51.4169 484.119 52.1754 483.706 52.7933C483.297 53.4112 482.798 53.88 482.21 54.1996C481.626 54.5192 480.966 54.679 480.228 54.679C479.495 54.679 478.841 54.5341 478.266 54.2443C477.695 53.9503 477.226 53.5433 476.86 53.0234C476.498 52.4993 476.265 51.892 476.163 51.2017H477.723C477.863 51.8026 478.142 52.299 478.56 52.6911C478.982 53.0788 479.538 53.2727 480.228 53.2727C481.238 53.2727 482.035 52.8317 482.619 51.9496C483.207 51.0675 483.501 49.821 483.501 48.2102H483.399C483.16 48.5682 482.877 48.8771 482.549 49.1371C482.221 49.397 481.856 49.5973 481.456 49.7379C481.055 49.8786 480.629 49.9489 480.177 49.9489C479.427 49.9489 478.739 49.7635 478.113 49.3928C477.49 49.0178 476.992 48.5043 476.617 47.8523C476.246 47.196 476.061 46.446 476.061 45.6023C476.061 44.8011 476.24 44.0682 476.598 43.4034C476.96 42.7344 477.467 42.2017 478.119 41.8054C478.775 41.4091 479.547 41.2173 480.433 41.2301ZM480.433 42.6364C479.896 42.6364 479.412 42.7706 478.982 43.0391C478.556 43.3033 478.217 43.6612 477.966 44.1129C477.718 44.5604 477.595 45.0568 477.595 45.6023C477.595 46.1477 477.714 46.6442 477.953 47.0916C478.196 47.5348 478.526 47.8885 478.944 48.1527C479.365 48.4126 479.845 48.5426 480.382 48.5426C480.787 48.5426 481.164 48.4638 481.513 48.3061C481.863 48.1442 482.167 47.9247 482.427 47.6477C482.691 47.3665 482.898 47.049 483.047 46.6953C483.196 46.3374 483.271 45.9645 483.271 45.5767C483.271 45.0653 483.147 44.5859 482.9 44.1385C482.657 43.6911 482.321 43.3288 481.89 43.0518C481.464 42.7749 480.978 42.6364 480.433 42.6364ZM491.844 54.679C491.307 54.6705 490.77 54.5682 490.233 54.3722C489.697 54.1761 489.206 53.8459 488.763 53.3814C488.32 52.9126 487.964 52.2798 487.696 51.483C487.427 50.6818 487.293 49.6761 487.293 48.4659C487.293 47.3068 487.402 46.2798 487.619 45.3849C487.836 44.4858 488.152 43.7294 488.565 43.1158C488.979 42.4979 489.477 42.0291 490.061 41.7095C490.649 41.3899 491.312 41.2301 492.049 41.2301C492.782 41.2301 493.434 41.3771 494.005 41.6712C494.58 41.9609 495.049 42.3658 495.411 42.8857C495.773 43.4055 496.008 44.0043 496.114 44.6818H494.555C494.41 44.0937 494.128 43.6058 493.711 43.218C493.293 42.8303 492.739 42.6364 492.049 42.6364C491.035 42.6364 490.236 43.0774 489.652 43.9595C489.072 44.8416 488.78 46.0795 488.776 47.6733H488.878C489.117 47.3111 489.4 47.0021 489.729 46.7464C490.061 46.4865 490.427 46.2862 490.828 46.1456C491.229 46.005 491.653 45.9347 492.1 45.9347C492.85 45.9347 493.536 46.1222 494.158 46.4972C494.78 46.8679 495.279 47.3814 495.654 48.0376C496.029 48.6896 496.216 49.4375 496.216 50.2812C496.216 51.0909 496.035 51.8324 495.673 52.5057C495.311 53.1747 494.802 53.7074 494.145 54.1037C493.493 54.4957 492.726 54.6875 491.844 54.679ZM491.844 53.2727C492.381 53.2727 492.863 53.1385 493.289 52.87C493.719 52.6016 494.058 52.2415 494.305 51.7898C494.557 51.3381 494.682 50.8352 494.682 50.2812C494.682 49.7401 494.561 49.2479 494.318 48.8047C494.079 48.3572 493.749 48.0014 493.327 47.7372C492.91 47.473 492.432 47.3409 491.895 47.3409C491.491 47.3409 491.113 47.4219 490.764 47.5838C490.415 47.7415 490.108 47.9588 489.844 48.2358C489.584 48.5128 489.379 48.8303 489.23 49.1882C489.081 49.5419 489.006 49.9148 489.006 50.3068C489.006 50.8267 489.128 51.3125 489.371 51.7642C489.618 52.2159 489.954 52.5803 490.381 52.8572C490.811 53.1342 491.299 53.2727 491.844 53.2727ZM508.139 54.679C507.602 54.6705 507.065 54.5682 506.528 54.3722C505.991 54.1761 505.501 53.8459 505.058 53.3814C504.615 52.9126 504.259 52.2798 503.991 51.483C503.722 50.6818 503.588 49.6761 503.588 48.4659C503.588 47.3068 503.697 46.2798 503.914 45.3849C504.131 44.4858 504.447 43.7294 504.86 43.1158C505.273 42.4979 505.772 42.0291 506.356 41.7095C506.944 41.3899 507.607 41.2301 508.344 41.2301C509.077 41.2301 509.729 41.3771 510.3 41.6712C510.875 41.9609 511.344 42.3658 511.706 42.8857C512.068 43.4055 512.303 44.0043 512.409 44.6818H510.849C510.705 44.0937 510.423 43.6058 510.006 43.218C509.588 42.8303 509.034 42.6364 508.344 42.6364C507.33 42.6364 506.531 43.0774 505.947 43.9595C505.367 44.8416 505.075 46.0795 505.071 47.6733H505.173C505.412 47.3111 505.695 47.0021 506.023 46.7464C506.356 46.4865 506.722 46.2862 507.123 46.1456C507.523 46.005 507.947 45.9347 508.395 45.9347C509.145 45.9347 509.831 46.1222 510.453 46.4972C511.075 46.8679 511.574 47.3814 511.949 48.0376C512.324 48.6896 512.511 49.4375 512.511 50.2812C512.511 51.0909 512.33 51.8324 511.968 52.5057C511.606 53.1747 511.097 53.7074 510.44 54.1037C509.788 54.4957 509.021 54.6875 508.139 54.679ZM508.139 53.2727C508.676 53.2727 509.158 53.1385 509.584 52.87C510.014 52.6016 510.353 52.2415 510.6 51.7898C510.852 51.3381 510.977 50.8352 510.977 50.2812C510.977 49.7401 510.856 49.2479 510.613 48.8047C510.374 48.3572 510.044 48.0014 509.622 47.7372C509.205 47.473 508.727 47.3409 508.19 47.3409C507.786 47.3409 507.408 47.4219 507.059 47.5838C506.71 47.7415 506.403 47.9588 506.138 48.2358C505.879 48.5128 505.674 48.8303 505.525 49.1882C505.376 49.5419 505.301 49.9148 505.301 50.3068C505.301 50.8267 505.423 51.3125 505.665 51.7642C505.913 52.2159 506.249 52.5803 506.675 52.8572C507.106 53.1342 507.594 53.2727 508.139 53.2727ZM519.116 54.679C518.366 54.679 517.691 54.5298 517.09 54.2315C516.489 53.9332 516.007 53.5241 515.645 53.0043C515.283 52.4844 515.085 51.892 515.051 51.2273H516.585C516.644 51.8196 516.913 52.3097 517.39 52.6974C517.872 53.081 518.447 53.2727 519.116 53.2727C519.653 53.2727 520.13 53.147 520.548 52.8956C520.97 52.6442 521.3 52.299 521.539 51.8601C521.781 51.4169 521.903 50.9162 521.903 50.358C521.903 49.7869 521.777 49.2777 521.526 48.8303C521.279 48.3786 520.938 48.0227 520.503 47.7628C520.068 47.5028 519.572 47.3707 519.014 47.3665C518.613 47.3622 518.202 47.424 517.78 47.5518C517.358 47.6754 517.011 47.8352 516.738 48.0312L515.255 47.8523L516.048 41.4091H522.849V42.8153H517.377L516.917 46.6761H516.994C517.262 46.4631 517.599 46.2862 518.004 46.1456C518.409 46.005 518.83 45.9347 519.269 45.9347C520.07 45.9347 520.784 46.1264 521.411 46.5099C522.041 46.8892 522.536 47.4091 522.894 48.0696C523.256 48.7301 523.437 49.4844 523.437 50.3324C523.437 51.1676 523.249 51.9134 522.874 52.5696C522.504 53.2216 521.992 53.7372 521.34 54.1165C520.688 54.4915 519.947 54.679 519.116 54.679ZM525.669 51.8153V50.5114L531.422 41.4091H532.368V43.429H531.729L527.382 50.3068V50.4091H535.13V51.8153H525.669ZM531.831 54.5V51.419V50.8118V41.4091H533.34V54.5H531.831Z" fill="#7E7E7E"/>
</svg>
