<svg width="124" height="20" viewBox="0 0 124 20" fill="none" xmlns="http://www.w3.org/2000/svg">
<path d="M12.6268 2.84736C13.6109 2.85019 14.5539 3.22791 15.2498 3.89802C15.9456 4.56813 16.3379 5.47619 16.3408 6.42386V13.5761C16.3379 14.5238 15.9456 15.4318 15.2498 16.1019C14.5539 16.7721 13.6109 17.1498 12.6268 17.1526H5.19944C4.21532 17.1498 3.27234 16.7721 2.57645 16.1019C1.88057 15.4318 1.48832 14.5238 1.48539 13.5761V6.42386C1.48832 5.47619 1.88057 4.56813 2.57645 3.89802C3.27234 3.22791 4.21532 2.85019 5.19944 2.84736H12.6268ZM12.6268 1.41699H5.19944C2.33969 1.41699 0 3.67003 0 6.42386V13.5761C0 16.3299 2.33969 18.583 5.19944 18.583H12.6268C15.4865 18.583 17.8262 16.3299 17.8262 13.5761V6.42386C17.8262 3.67003 15.4865 1.41699 12.6268 1.41699Z" fill="#1C2752"/>
<path d="M13.7409 6.42407C13.5205 6.42407 13.3051 6.36115 13.1219 6.24326C12.9387 6.12537 12.7959 5.95781 12.7116 5.76177C12.6272 5.56572 12.6052 5.35 12.6482 5.14189C12.6912 4.93377 12.7973 4.7426 12.9531 4.59256C13.1089 4.44251 13.3074 4.34033 13.5235 4.29894C13.7397 4.25754 13.9637 4.27879 14.1673 4.35999C14.3708 4.44119 14.5448 4.5787 14.6673 4.75514C14.7897 4.93157 14.855 5.139 14.855 5.35119C14.8553 5.49217 14.8267 5.63182 14.7709 5.76212C14.715 5.89243 14.6329 6.01082 14.5294 6.11051C14.4259 6.21019 14.3029 6.28921 14.1676 6.34302C14.0323 6.39683 13.8873 6.42437 13.7409 6.42407ZM8.9131 7.13906C9.50074 7.13906 10.0752 7.30686 10.5638 7.62125C11.0524 7.93563 11.4332 8.38248 11.6581 8.90528C11.883 9.42809 11.9418 10.0034 11.8272 10.5584C11.7125 11.1134 11.4296 11.6232 11.014 12.0233C10.5985 12.4234 10.0691 12.6959 9.49274 12.8063C8.91639 12.9167 8.31899 12.8601 7.77608 12.6435C7.23317 12.427 6.76914 12.0603 6.44266 11.5897C6.11619 11.1192 5.94193 10.5661 5.94193 10.0002C5.94277 9.24162 6.25608 8.51435 6.81309 7.97796C7.37011 7.44157 8.12535 7.13987 8.9131 7.13906ZM8.9131 5.70869C8.03167 5.70869 7.17005 5.96038 6.43717 6.43194C5.70429 6.90349 5.13309 7.57373 4.79578 8.3579C4.45847 9.14207 4.37022 10.0049 4.54218 10.8374C4.71413 11.6699 5.13858 12.4346 5.76184 13.0347C6.3851 13.6349 7.17918 14.0436 8.04367 14.2092C8.90815 14.3748 9.80422 14.2898 10.6185 13.965C11.4329 13.6402 12.1289 13.0901 12.6186 12.3844C13.1083 11.6787 13.3696 10.849 13.3696 10.0002C13.3696 8.86201 12.9001 7.77045 12.0644 6.96564C11.2286 6.16083 10.095 5.70869 8.9131 5.70869Z" fill="#1C2752"/>
<path fill-rule="evenodd" clip-rule="evenodd" d="M52.6524 10.0517C52.6524 5.31194 48.6614 1.46875 43.7393 1.46875C38.8172 1.46875 34.8262 5.31194 34.8262 10.0517C34.8262 14.3356 38.085 17.8864 42.3466 18.5309V12.5335H40.0829V10.0517H42.3466V8.1608C42.3466 6.01007 43.6776 4.8211 45.7133 4.8211C46.6886 4.8211 47.7088 4.98893 47.7088 4.98893V7.10134H46.5843C45.4777 7.10134 45.1316 7.76269 45.1316 8.44243V10.0517H47.6033L47.2086 12.5335H45.132V18.5317C49.3935 17.8876 52.6524 14.3367 52.6524 10.0517Z" fill="#1C2752"/>
<path d="M88.7519 4.17083C88.0354 4.48214 87.2774 4.68723 86.5017 4.77963C87.3169 4.30229 87.9299 3.54396 88.2258 2.64685C87.4551 3.09752 86.6133 3.41372 85.7365 3.58193C85.3673 3.19498 84.9233 2.88715 84.4314 2.67715C83.9395 2.46715 83.41 2.35937 82.8752 2.36036C80.7098 2.36036 78.9574 4.08727 78.9574 6.21607C78.9559 6.51218 78.9898 6.80741 79.0585 7.09545C77.5057 7.02265 75.9852 6.62655 74.5943 5.93247C73.2034 5.23839 71.9727 4.26162 70.981 3.06465C70.633 3.65121 70.449 4.32046 70.4482 5.00246C70.4482 6.33942 71.1457 7.52121 72.1989 8.21356C71.5749 8.19875 70.9637 8.03359 70.4171 7.7321V7.77984C70.4171 9.65 71.77 11.2058 73.5606 11.56C73.2239 11.6497 72.8769 11.6952 72.5284 11.6952C72.2811 11.6957 72.0344 11.6717 71.7919 11.6236C72.2897 13.1556 73.7384 14.2697 75.4546 14.3015C74.0601 15.3762 72.348 15.9571 70.5874 15.9528C70.2749 15.9524 69.9627 15.9338 69.6523 15.8971C71.4434 17.0408 73.5253 17.6458 75.6504 17.64C82.8668 17.64 86.8093 11.7629 86.8093 6.66571C86.8093 6.49859 86.8049 6.33146 86.7969 6.16832C87.5622 5.62401 88.2242 4.94759 88.7519 4.17083Z" fill="#1C2752"/>
<path d="M114.809 0.945312C109.807 0.945312 105.752 4.99876 105.752 9.99788C105.752 13.7038 107.984 16.8883 111.174 18.2907C111.15 17.6602 111.17 16.9005 111.331 16.2134C111.505 15.4779 112.496 11.279 112.496 11.279C112.496 11.279 112.205 10.7011 112.205 9.84835C112.205 8.50663 112.981 7.50438 113.951 7.50438C114.776 7.50438 115.172 8.1227 115.172 8.86226C115.172 9.69074 114.643 10.9274 114.372 12.0751C114.145 13.037 114.853 13.8169 115.803 13.8169C117.517 13.8169 118.674 11.6144 118.674 9.00371C118.674 7.01942 117.336 5.53626 114.906 5.53626C112.16 5.53626 110.446 7.58521 110.446 9.87259C110.446 10.6607 110.681 11.2184 111.044 11.6467C111.21 11.8448 111.234 11.9256 111.174 12.1519C111.129 12.3176 111.032 12.7177 110.988 12.8793C110.927 13.1097 110.741 13.1905 110.535 13.1057C109.269 12.5884 108.679 11.2062 108.679 9.64628C108.679 7.076 110.85 3.99247 115.152 3.99247C118.609 3.99247 120.885 6.49405 120.885 9.17749C120.885 12.7298 118.908 15.3809 115.997 15.3809C115.019 15.3809 114.101 14.8515 113.786 14.2534C113.786 14.2534 113.26 16.3387 113.147 16.7428C112.957 17.442 112.581 18.1371 112.237 18.6827C113.071 18.9285 113.935 19.0537 114.805 19.0545C119.806 19.0545 123.861 15.001 123.861 10.0019C123.861 5.0028 119.81 0.945312 114.809 0.945312Z" fill="#1C2752"/>
</svg>
